<?xml version="1.0" encoding="UTF-8"?>
<svg cursor="pointer" style="height:110.946px;left:50%;position:absolute;top:50%;transform:translate(-50%, -50%) scale(0.464444);width:360px;z-index:0" viewBox="0 0 360 110.95" xmlns="http://www.w3.org/2000/svg">
<g transform="matrix(1.5773 0 0 1.5773 .73817 9.2114)" fill="#364f6b" featurekey="PG4fjM-0">
<g xmlns="http://www.w3.org/2000/svg">
<path d="m22.4 18c-0.7 0-1.3 0.6-1.4 1.4 0.9 0.4 1.7 0.8 2.5 1.1 0.2-0.3 0.3-0.5 0.3-0.9 0-0.8-0.7-1.6-1.4-1.6z"/>
<path d="m24.5 29.8-1.3-7.7c-0.1 0-0.1-0.1-0.2-0.1l-0.6-0.3c-0.2-0.1-0.5-0.2-0.7-0.3l-1.4 8.3h4.2z"/>
<path d="m19 16.9c-0.1 0.7 0.2 1.3 0.6 1.7 0.3-1 1.1-1.8 2-2l-0.1-4.4-1-0.3c-0.8 1.5-1.3 3.2-1.5 5z"/>
<path d="m19.6 20.6c0 0.2 0 0.4-0.1 0.5v0.5c0 0.6-0.1 1.1-0.1 1.7s0 1.2 0.1 1.8l0.6-3.5c-0.3-0.3-0.4-0.7-0.5-1z"/>
<path d="m33 49.8c-0.3 0.2-0.6 0.2-0.9 0h-0.1l-4.9 5.5 5.3 9.2h0.1l5.3-9.2-4.8-5.5z"/>
<path d="m45.5 21.6v-0.5c0-0.2-0.1-0.4-0.1-0.6-0.3 0.1-0.5 0.2-0.8 0.4-0.3 0.1-0.5 0.2-0.8 0.4-0.3 0.1-0.6 0.3-0.9 0.4s-0.6 0.2-0.8 0.4c-0.3 0.1-0.5 0.2-0.8 0.3s-0.6 0.2-0.8 0.3c-0.3 0.1-0.5 0.2-0.8 0.3s-0.6 0.2-0.8 0.3-0.5 0.2-0.7 0.3c-0.3 0.1-0.5 0.2-0.8 0.3s-0.5 0.2-0.7 0.2c-0.3 0.1-0.5 0.2-0.8 0.2-0.3 0.1-0.5 0.1-0.8 0.2-0.2 0.1-0.4 0.1-0.6 0.2-0.5 0.1-1 0.2-1.4 0.3-0.2 0-0.4 0.1-0.6 0.1s-0.4 0-0.6-0.1c-0.4-0.1-0.9-0.2-1.3-0.3-0.2 0-0.4-0.1-0.5-0.1-0.3-0.1-0.6-0.1-0.8-0.2s-0.4-0.1-0.6-0.2c-0.3-0.1-0.5-0.2-0.8-0.3-0.2-0.1-0.4-0.1-0.6-0.2-0.3-0.1-0.6-0.2-0.9-0.3-0.2-0.1-0.4-0.2-0.6-0.2-0.2-0.1-0.5-0.2-0.7-0.3l1.3 7.7c0 0.2 0 0.5-0.2 0.6-0.2 0.2-0.4 0.3-0.6 0.3h-4.9c0.6 2.1 1.4 4.1 2.4 5.9 2.6 4.7 6.1 7.4 9.5 7.4s6.9-2.7 9.5-7.4c1.4-2.5 2.4-5.4 3-8.4 0.4-1.9 0.6-3.8 0.6-5.6-0.1-0.7-0.1-1.2-0.2-1.8z"/>
<path d="m23.1 42.8 9.3 5.2c0.1 0 0.1 0.1 0.1 0.1l0.1-0.1 9.3-5.2v-2.3l-0.1 0.1c-0.3 0.4-0.6 0.8-0.9 1.2l-0.2 0.2c-0.3 0.4-0.6 0.7-1 1l-0.1 0.1c-0.3 0.3-0.7 0.6-1 0.9l-0.2 0.2c-0.3 0.3-0.7 0.5-1 0.7-0.1 0-0.1 0.1-0.2 0.1-0.4 0.2-0.7 0.4-1.1 0.6s-0.7 0.3-1.1 0.4c-0.1 0-0.1 0-0.2 0.1-0.4 0.1-0.7 0.2-1.1 0.3h-0.2c-0.4 0.1-0.8 0.1-1.1 0.1s-0.8 0-1.1-0.1h-0.2c-0.4-0.1-0.7-0.1-1.1-0.3-0.1 0-0.1 0-0.2-0.1-0.4-0.1-0.7-0.3-1.1-0.4-0.4-0.2-0.7-0.4-1.1-0.6-0.1 0-0.1-0.1-0.2-0.1-0.3-0.2-0.7-0.5-1-0.7l-0.2-0.2c-0.3-0.3-0.7-0.6-1-0.9l-0.1-0.1c-0.3-0.3-0.6-0.7-0.9-1l-0.2-0.2c-0.3-0.4-0.6-0.7-0.9-1.2l-0.1-0.1v2.3z"/>
<polygon points="34.3 48.9 38.7 53.8 44.1 44.5 43 44"/>
<path d="m9.1 49.5c-2.6 1.2-4.7 3.6-5.7 6.5l-2.6 8.5h25.3l-14.9-15.9-2.1 0.9z"/>
<path d="m17.9 25.7v-0.5c0-0.6-0.1-1.3-0.1-1.9s0-1.2 0.1-1.9c0-0.2 0-0.4 0.1-0.6 0-0.3 0.1-0.6 0.1-0.9-0.2-0.1-0.3-0.1-0.5-0.1-0.1 0-0.2 0-0.3 0.1-1 0.4-1.5 2.5-0.7 5 0.4 1.3 1 2.2 1.7 2.8v-0.1c-0.3-0.6-0.3-1.3-0.4-1.9z"/>
<path d="m47.1 20.8c0 0.2 0 0.4 0.1 0.6 0 0.6 0.1 1.2 0.1 1.9 0 0.6 0 1.3-0.1 1.9v0.5c-0.2 0.7-0.2 1.3-0.3 1.9v0.1c0.6-0.6 1.3-1.5 1.7-2.8 0.8-2.5 0.3-4.6-0.7-5-0.3-0.1-0.6 0-0.8 0.1-0.1 0.2-0.1 0.5 0 0.8z"/>
<polygon points="19.4 45.1 12.8 48 28.3 64.5 30.6 64.5 24.2 53.4"/>
<polygon points="30.7 48.9 22 44 20.9 44.5 26.3 53.8"/>
<path d="m32.1 15.5-9-2.8 0.1 3.9c1.3 0.4 2.2 1.6 2.2 3 0 0.5-0.1 1-0.3 1.5 2.7 1.1 5.1 1.8 7.2 2.2h0.5c3.7-0.8 7.7-2.2 12.3-4.4 0.7-0.3 1.1-1.2 1-2-0.2-1.8-0.7-3.5-1.5-5.1l-11.7 3.7c-0.1 0-0.2 0.1-0.4 0.1-0.1 0-0.2-0.1-0.4-0.1z"/>
<path d="m33.8 7.2c0-0.3-0.5-0.7-1.3-0.7s-1.3 0.4-1.3 0.7 0.5 0.8 1.3 0.8 1.3-0.5 1.3-0.8z"/>
<path d="m20.3 10.1 1.9 0.6 7.4-4c0.3-1 1.4-1.8 2.9-1.8 1.6 0 2.9 1 2.9 2.3s-1.3 2.3-2.9 2.3c-1.1 0-2.1-0.5-2.6-1.2l-5.6 3 8.2 2.6 12.2-3.8 9.2-2.9-21.4-6.7-21.4 6.7 9.2 2.9z"/>
<polygon points="52.2 48 45.6 45.1 40.8 53.4 34.4 64.5 36.7 64.5"/>
<path d="m55.9 49.5-2.1-0.9-14.9 15.9h25.3l-2.6-8.5c-1-2.9-3.1-5.3-5.7-6.5z"/>
</g>
</g>
<g transform="matrix(3.4983 0 0 3.4983 137.2 17.509)" fill="#364f6b" featurekey="jxYttZ-0">
<path d="m5.42 9.92c2.84 0 3.98 1.72 3.98 3.18v6.9h-2.06v-1.08c-0.72 0.98-2 1.26-2.8 1.26-2.26 0-3.74-1.32-3.74-3.08 0-2.46 1.84-3.34 3.74-3.34h2.8v-0.66c0-0.62-0.24-1.48-1.92-1.48-0.94 0-1.8 0.5-2.36 1.28l-1.42-1.28c0.94-1.04 2.28-1.7 3.78-1.7zm1.92 7v-1.48h-2.52c-1.22 0-2.08 0.62-1.94 1.74 0.12 0.94 0.88 1.32 1.94 1.32 1.9 0 2.52-0.9 2.52-1.58zm9.5-6.98c2.84 0 4.94 2.2 4.94 5.14s-2.1 5.12-4.94 5.12c-0.96 0-2.06-0.36-2.84-0.94v0.74h-2.06v-15h2.06v5.9c0.66-0.54 1.88-0.96 2.84-0.96zm-0.2 8.58c1.7 0 3.08-1.44 3.08-3.44 0-2.02-1.38-3.44-3.08-3.44-1.12 0-2.1 0.5-2.64 1.56-0.28 0.56-0.44 1.2-0.44 1.88s0.16 1.32 0.44 1.86c0.54 1.06 1.52 1.58 2.64 1.58zm16.48-4.22v5.7h-2.06v-5.5c0-2-0.62-2.88-2.32-2.88-1.92 0-2.7 1.34-2.7 3.08v5.3h-2.06v-15h2.06v6.72c0.28-0.88 1.52-1.68 2.7-1.76 2.68-0.2 4.38 1.1 4.38 4.34zm11.18-4.18s-2.5 5.92-4.16 9.88c-1.4 3.32-2.5 5.32-4.36 5.32-0.58 0-1.32-0.28-1.86-0.6l0.62-1.8c0.16 0.14 0.52 0.34 0.76 0.4 1.54 0.44 2.5-2.78 3.16-4.36l-3.74-8.84h2.08l2.72 6.48 2.7-6.48h2.08zm5.82-0.2c2.84 0 3.98 1.72 3.98 3.18v6.9h-2.06v-1.08c-0.72 0.98-2 1.26-2.8 1.26-2.26 0-3.74-1.32-3.74-3.08 0-2.46 1.84-3.34 3.74-3.34h2.8v-0.66c0-0.62-0.24-1.48-1.92-1.48-0.94 0-1.8 0.5-2.36 1.28l-1.42-1.28c0.94-1.04 2.28-1.7 3.78-1.7zm1.92 7v-1.48h-2.52c-1.22 0-2.08 0.62-1.94 1.74 0.12 0.94 0.88 1.32 1.94 1.32 1.9 0 2.52-0.9 2.52-1.58zm11.48-0.76c0.04 0.12 0.38 1.1-0.04 2.1-0.52 1.18-1.9 1.94-3.62 1.94h-0.02c-1.38 0-2.64-0.58-3.58-1.5l1.34-1.34c0.56 0.72 1.36 1.08 2.24 1.08 0.98 0 1.8-0.36 2.02-0.88 0.14-0.36 0.02-0.74 0.02-0.78-0.24-0.6-1.12-0.72-2.12-0.94-1.34-0.3-2.68-0.64-3.2-2.04-0.26-0.72-0.18-1.56 0.18-2.26 0.82-1.54 2.86-1.6 3.1-1.6 1.38 0 2.68 0.52 3.6 1.46l-1.34 1.34c-0.56-0.72-1.38-1.04-2.26-1.04-0.02 0-1.2 0.02-1.54 0.68-0.12 0.2-0.18 0.54-0.08 0.82 0.2 0.56 1.1 0.74 2.06 0.96 1.3 0.3 2.72 0.6 3.24 2z"/>
</g>
</svg>
