<svg viewBox="0 0 360 110.94637588403657" height="110.94637588403657" width="360" style="width: 360px; height: 110.946px; position: absolute; top: 50%; left: 50%; transform: translate(-50%, -50%) scale(0.464444); z-index: 0; cursor: pointer;"><defs id="SvgjsDefs1326"></defs><g id="SvgjsG1327" featurekey="PG4fjM-0" transform="matrix(1.5772871231880714,0,0,1.5772871231880714,0.7381692484967886,9.211356438405964)" fill="#364f6b"><g xmlns="http://www.w3.org/2000/svg"><path d="M22.4,18c-0.7,0-1.3,0.6-1.4,1.4c0.9,0.4,1.7,0.8,2.5,1.1c0.2-0.3,0.3-0.5,0.3-0.9C23.8,18.8,23.1,18,22.4,18z"></path><path d="M24.5,29.8l-1.3-7.7c-0.1,0-0.1-0.1-0.2-0.1c-0.2-0.1-0.4-0.2-0.6-0.3c-0.2-0.1-0.5-0.2-0.7-0.3c0,0,0,0,0,0l-1.4,8.3H24.5   z"></path><path d="M19,16.9c-0.1,0.7,0.2,1.3,0.6,1.7c0.3-1,1.1-1.8,2-2l-0.1-4.4l-1-0.3C19.7,13.4,19.2,15.1,19,16.9z"></path><path d="M19.6,20.6c0,0.2,0,0.4-0.1,0.5c0,0.2,0,0.3,0,0.5c0,0.6-0.1,1.1-0.1,1.7c0,0.6,0,1.2,0.1,1.8l0.6-3.5   C19.8,21.3,19.7,20.9,19.6,20.6z"></path><path d="M33,49.8L33,49.8c-0.3,0.2-0.6,0.2-0.9,0l-0.1,0l-4.9,5.5l5.3,9.2h0.1l5.3-9.2L33,49.8z"></path><path d="M45.5,21.6c0-0.2,0-0.3,0-0.5c0-0.2-0.1-0.4-0.1-0.6c-0.3,0.1-0.5,0.2-0.8,0.4c-0.3,0.1-0.5,0.2-0.8,0.4   c-0.3,0.1-0.6,0.3-0.9,0.4c-0.3,0.1-0.6,0.2-0.8,0.4c-0.3,0.1-0.5,0.2-0.8,0.3c-0.3,0.1-0.6,0.2-0.8,0.3c-0.3,0.1-0.5,0.2-0.8,0.3   c-0.3,0.1-0.6,0.2-0.8,0.3c-0.2,0.1-0.5,0.2-0.7,0.3c-0.3,0.1-0.5,0.2-0.8,0.3c-0.3,0.1-0.5,0.2-0.7,0.2c-0.3,0.1-0.5,0.2-0.8,0.2   c-0.3,0.1-0.5,0.1-0.8,0.2c-0.2,0.1-0.4,0.1-0.6,0.2c-0.5,0.1-1,0.2-1.4,0.3c-0.2,0-0.4,0.1-0.6,0.1c0,0,0,0,0,0   c-0.2,0-0.4,0-0.6-0.1c-0.4-0.1-0.9-0.2-1.3-0.3c-0.2,0-0.4-0.1-0.5-0.1c-0.3-0.1-0.6-0.1-0.8-0.2c-0.2-0.1-0.4-0.1-0.6-0.2   c-0.3-0.1-0.5-0.2-0.8-0.3c-0.2-0.1-0.4-0.1-0.6-0.2c-0.3-0.1-0.6-0.2-0.9-0.3c-0.2-0.1-0.4-0.2-0.6-0.2c-0.2-0.1-0.5-0.2-0.7-0.3   l1.3,7.7c0,0.2,0,0.5-0.2,0.6c-0.2,0.2-0.4,0.3-0.6,0.3h-4.9c0.6,2.1,1.4,4.1,2.4,5.9c2.6,4.7,6.1,7.4,9.5,7.4s6.9-2.7,9.5-7.4   c1.4-2.5,2.4-5.4,3-8.4c0.4-1.9,0.6-3.8,0.6-5.6C45.6,22.7,45.6,22.2,45.5,21.6z"></path><path d="M23.1,42.8l9.3,5.2c0.1,0,0.1,0.1,0.1,0.1c0,0,0.1-0.1,0.1-0.1l9.3-5.2v-2.3c0,0-0.1,0.1-0.1,0.1c-0.3,0.4-0.6,0.8-0.9,1.2   c-0.1,0.1-0.1,0.1-0.2,0.2c-0.3,0.4-0.6,0.7-1,1c0,0,0,0-0.1,0.1c-0.3,0.3-0.7,0.6-1,0.9c-0.1,0.1-0.1,0.1-0.2,0.2   c-0.3,0.3-0.7,0.5-1,0.7c-0.1,0-0.1,0.1-0.2,0.1c-0.4,0.2-0.7,0.4-1.1,0.6c0,0,0,0,0,0c-0.4,0.2-0.7,0.3-1.1,0.4   c-0.1,0-0.1,0-0.2,0.1c-0.4,0.1-0.7,0.2-1.1,0.3c-0.1,0-0.1,0-0.2,0c-0.4,0.1-0.8,0.1-1.1,0.1s-0.8,0-1.1-0.1c-0.1,0-0.1,0-0.2,0   c-0.4-0.1-0.7-0.1-1.1-0.3c-0.1,0-0.1,0-0.2-0.1c-0.4-0.1-0.7-0.3-1.1-0.4c0,0,0,0,0,0c-0.4-0.2-0.7-0.4-1.1-0.6   c-0.1,0-0.1-0.1-0.2-0.1c-0.3-0.2-0.7-0.5-1-0.7c-0.1-0.1-0.1-0.1-0.2-0.2c-0.3-0.3-0.7-0.6-1-0.9c0,0,0,0-0.1-0.1   c-0.3-0.3-0.6-0.7-0.9-1c-0.1-0.1-0.1-0.1-0.2-0.2c-0.3-0.4-0.6-0.7-0.9-1.2c0,0-0.1-0.1-0.1-0.1V42.8z"></path><polygon points="34.3,48.9 38.7,53.8 44.1,44.5 43,44  "></polygon><path d="M9.1,49.5c-2.6,1.2-4.7,3.6-5.7,6.5l-2.6,8.5h25.3L11.2,48.6L9.1,49.5z"></path><path d="M17.9,25.7c0-0.2,0-0.3,0-0.5c0-0.6-0.1-1.3-0.1-1.9c0-0.6,0-1.2,0.1-1.9c0-0.2,0-0.4,0.1-0.6c0-0.3,0.1-0.6,0.1-0.9   c-0.2-0.1-0.3-0.1-0.5-0.1c-0.1,0-0.2,0-0.3,0.1c-1,0.4-1.5,2.5-0.7,5c0.4,1.3,1,2.2,1.7,2.8c0,0,0-0.1,0-0.1   C18,27,18,26.3,17.9,25.7z"></path><path d="M47.1,20.8c0,0.2,0,0.4,0.1,0.6c0,0.6,0.1,1.2,0.1,1.9c0,0.6,0,1.3-0.1,1.9c0,0.2,0,0.3,0,0.5C47,26.4,47,27,46.9,27.6   c0,0,0,0,0,0.1c0.6-0.6,1.3-1.5,1.7-2.8c0.8-2.5,0.3-4.6-0.7-5c-0.3-0.1-0.6,0-0.8,0.1C47,20.2,47,20.5,47.1,20.8z"></path><polygon points="19.4,45.1 12.8,48 28.3,64.5 30.6,64.5 24.2,53.4  "></polygon><polygon points="30.7,48.9 22,44 20.9,44.5 26.3,53.8  "></polygon><path d="M32.1,15.5l-9-2.8l0.1,3.9c1.3,0.4,2.2,1.6,2.2,3c0,0.5-0.1,1-0.3,1.5c2.7,1.1,5.1,1.8,7.2,2.2c0.2,0,0.4,0,0.5,0   c3.7-0.8,7.7-2.2,12.3-4.4c0.7-0.3,1.1-1.2,1-2c-0.2-1.8-0.7-3.5-1.5-5.1l-11.7,3.7c-0.1,0-0.2,0.1-0.4,0.1   C32.4,15.6,32.3,15.5,32.1,15.5z"></path><path d="M33.8,7.2c0-0.3-0.5-0.7-1.3-0.7c-0.8,0-1.3,0.4-1.3,0.7S31.7,8,32.5,8C33.3,8,33.8,7.5,33.8,7.2z"></path><path d="M20.3,10.1l1.9,0.6l7.4-4c0.3-1,1.4-1.8,2.9-1.8c1.6,0,2.9,1,2.9,2.3s-1.3,2.3-2.9,2.3c-1.1,0-2.1-0.5-2.6-1.2l-5.6,3   l8.2,2.6l12.2-3.8c0,0,0,0,0,0l9.2-2.9L32.5,0.5L11.1,7.2L20.3,10.1C20.3,10.1,20.3,10.1,20.3,10.1z"></path><polygon points="52.2,48 45.6,45.1 40.8,53.4 34.4,64.5 36.7,64.5  "></polygon><path d="M55.9,49.5l-2.1-0.9L38.9,64.5h25.3L61.6,56C60.6,53.1,58.5,50.7,55.9,49.5z"></path></g></g><g id="SvgjsG1328" featurekey="jxYttZ-0" transform="matrix(3.498295153974186,0,0,3.498295153974186,137.20136404363237,17.50852423012907)" fill="#364f6b"><path d="M5.42 9.92 c2.84 0 3.98 1.72 3.98 3.18 l0 6.9 l-2.06 0 l0 -1.08 c-0.72 0.98 -2 1.26 -2.8 1.26 c-2.26 0 -3.74 -1.32 -3.74 -3.08 c0 -2.46 1.84 -3.34 3.74 -3.34 l2.8 0 l0 -0.66 c0 -0.62 -0.24 -1.48 -1.92 -1.48 c-0.94 0 -1.8 0.5 -2.36 1.28 l-1.42 -1.28 c0.94 -1.04 2.28 -1.7 3.78 -1.7 z M7.34 16.92 l0 -1.48 l-2.52 0 c-1.22 0 -2.08 0.62 -1.94 1.74 c0.12 0.94 0.88 1.32 1.94 1.32 c1.9 0 2.52 -0.9 2.52 -1.58 z M16.84 9.94 c2.84 0 4.94 2.2 4.94 5.14 s-2.1 5.12 -4.94 5.12 c-0.96 0 -2.06 -0.36 -2.84 -0.94 l0 0.74 l-2.06 0 l0 -15 l2.06 0 l0 5.9 c0.66 -0.54 1.88 -0.96 2.84 -0.96 z M16.64 18.52 c1.7 0 3.08 -1.44 3.08 -3.44 c0 -2.02 -1.38 -3.44 -3.08 -3.44 c-1.12 0 -2.1 0.5 -2.64 1.56 c-0.28 0.56 -0.44 1.2 -0.44 1.88 s0.16 1.32 0.44 1.86 c0.54 1.06 1.52 1.58 2.64 1.58 z M33.12 14.3 l0 5.7 l-2.06 0 l0 -5.5 c0 -2 -0.62 -2.88 -2.32 -2.88 c-1.92 0 -2.7 1.34 -2.7 3.08 l0 5.3 l-2.06 0 l0 -15 l2.06 0 l0 6.72 c0.28 -0.88 1.52 -1.68 2.7 -1.76 c2.68 -0.2 4.38 1.1 4.38 4.34 z M44.3 10.12 c0 0 -2.5 5.92 -4.16 9.88 c-1.4 3.32 -2.5 5.32 -4.36 5.32 c-0.58 0 -1.32 -0.28 -1.86 -0.6 l0.62 -1.8 c0.16 0.14 0.52 0.34 0.76 0.4 c1.54 0.44 2.5 -2.78 3.16 -4.36 l-3.74 -8.84 l2.08 0 l2.72 6.48 l2.7 -6.48 l2.08 0 z M50.12 9.92 c2.84 0 3.98 1.72 3.98 3.18 l0 6.9 l-2.06 0 l0 -1.08 c-0.72 0.98 -2 1.26 -2.8 1.26 c-2.26 0 -3.74 -1.32 -3.74 -3.08 c0 -2.46 1.84 -3.34 3.74 -3.34 l2.8 0 l0 -0.66 c0 -0.62 -0.24 -1.48 -1.92 -1.48 c-0.94 0 -1.8 0.5 -2.36 1.28 l-1.42 -1.28 c0.94 -1.04 2.28 -1.7 3.78 -1.7 z M52.03999999999999 16.92 l0 -1.48 l-2.52 0 c-1.22 0 -2.08 0.62 -1.94 1.74 c0.12 0.94 0.88 1.32 1.94 1.32 c1.9 0 2.52 -0.9 2.52 -1.58 z M63.519999999999996 16.16 c0.04 0.12 0.38 1.1 -0.04 2.1 c-0.52 1.18 -1.9 1.94 -3.62 1.94 l-0.02 0 c-1.38 0 -2.64 -0.58 -3.58 -1.5 l1.34 -1.34 c0.56 0.72 1.36 1.08 2.24 1.08 c0.98 0 1.8 -0.36 2.02 -0.88 c0.14 -0.36 0.02 -0.74 0.02 -0.78 c-0.24 -0.6 -1.12 -0.72 -2.12 -0.94 c-1.34 -0.3 -2.68 -0.64 -3.2 -2.04 c-0.26 -0.72 -0.18 -1.56 0.18 -2.26 c0.82 -1.54 2.86 -1.6 3.1 -1.6 c1.38 0 2.68 0.52 3.6 1.46 l-1.34 1.34 c-0.56 -0.72 -1.38 -1.04 -2.26 -1.04 c-0.02 0 -1.2 0.02 -1.54 0.68 c-0.12 0.2 -0.18 0.54 -0.08 0.82 c0.2 0.56 1.1 0.74 2.06 0.96 c1.3 0.3 2.72 0.6 3.24 2 z"></path></g></svg>